<?xml version="1.0" encoding="iso-8859-1"?>
<!-- Uploaded to: SVG Repo, www.svgrepo.com, Generator: SVG Repo Mixer Tools -->
<svg fill="#918b8bff" height="800px" width="800px" version="1.1" id="Layer_1" xmlns="http://www.w3.org/2000/svg" xmlns:xlink="http://www.w3.org/1999/xlink" 
	 viewBox="0 0 511.997 511.997" xml:space="preserve">
<g>
	<g>
		<path d="M455.292,38.243c-50.995-50.995-133.666-50.987-184.653,0L122.918,185.964l18.466,18.466L289.097,56.709
			c40.73-40.73,106.991-40.73,147.721,0c40.73,40.73,40.73,106.991,0,147.721L178.308,462.939
			c-30.541,30.549-80.247,30.541-110.788,0c-30.541-30.541-30.549-80.239,0-110.788L326.029,93.633
			c20.369-20.361,53.504-20.361,73.865,0c20.361,20.369,20.361,53.504,0,73.865L252.173,315.218l18.466,18.466L418.36,185.955
			c30.592-30.592,30.592-80.196,0-110.788c-30.592-30.592-80.196-30.592-110.788,0L49.054,333.684
			c-40.789,40.789-40.789,106.923,0,147.721c40.789,40.789,106.931,40.789,147.721,0l258.517-258.509
			C506.278,171.901,506.287,89.238,455.292,38.243z"/>
	</g>
</g>
</svg>